# xmcd
#
# Track frame offsets:
#	150
#	23776
#	41222
#	54615
#	77505
#	93840
#	115010
#	141805
#	162944
#	189070
#	226107
#
# Disc length: 3222 seconds
#
# Revision: 1
# Processed by: cddbd v1.5.2PL0 Copyright (c) Steve Scherf et al.
# Submitted via: audiograbber 1.83.01
#
DISCID=7b0c940b
DTITLE=Tandy - To A Friend
DYEAR=2007
DGENRE=Americana
TTITLE0=Person To Person 
TTITLE1=To A Friend
TTITLE2=Home 
TTITLE3=Desire 
TTITLE4=Epitaph 
TTITLE5=The Fever Breaks 
TTITLE6=Girls Like Us 
TTITLE7=It's Still Ringing 
TTITLE8=Superette 
TTITLE9=Providence 
TTITLE10=Hello Old Friend
EXTD=
EXTT0=
EXTT1=
EXTT2=
EXTT3=
EXTT4=
EXTT5=
EXTT6=
EXTT7=
EXTT8=
EXTT9=
EXTT10=
PLAYORDER=
